<svg width="155" height="27" viewBox="0 0 155 27" fill="none" xmlns="http://www.w3.org/2000/svg">
<path d="M18.6328 0.351562V4.48242H5.90625V0.351562H18.6328ZM22.3945 0.351562V25.9453H17.1211V0.351562H22.3945ZM5.23828 0.351562H10.4941L9.84375 13.2012C9.75 15.123 9.56836 16.793 9.29883 18.2109C9.04102 19.6289 8.68945 20.8359 8.24414 21.832C7.79883 22.8164 7.24805 23.6133 6.5918 24.2227C5.94727 24.8203 5.18555 25.2598 4.30664 25.541C3.42773 25.8105 2.42578 25.9453 1.30078 25.9453H0V21.832L0.667969 21.7793C1.24219 21.7207 1.74609 21.5684 2.17969 21.3223C2.61328 21.0762 2.98242 20.707 3.28711 20.2148C3.60352 19.7227 3.86133 19.0957 4.06055 18.334C4.27148 17.5605 4.43555 16.6172 4.55273 15.5039C4.68164 14.3906 4.76953 13.0898 4.81641 11.6016L5.23828 0.351562ZM46.5659 12.5508V13.7637C46.5659 15.709 46.3022 17.4551 45.7748 19.002C45.2475 20.5488 44.5034 21.8672 43.5424 22.957C42.5815 24.0352 41.433 24.8613 40.0971 25.4355C38.7729 26.0098 37.3022 26.2969 35.685 26.2969C34.0795 26.2969 32.6088 26.0098 31.2729 25.4355C29.9487 24.8613 28.8002 24.0352 27.8276 22.957C26.8549 21.8672 26.0991 20.5488 25.56 19.002C25.0327 17.4551 24.769 15.709 24.769 13.7637V12.5508C24.769 10.5938 25.0327 8.84766 25.56 7.3125C26.0873 5.76562 26.8315 4.44727 27.7924 3.35742C28.7651 2.26758 29.9135 1.43555 31.2377 0.861328C32.5737 0.287109 34.0444 0 35.6498 0C37.267 0 38.7377 0.287109 40.062 0.861328C41.3979 1.43555 42.5463 2.26758 43.5073 3.35742C44.4799 4.44727 45.2299 5.76562 45.7573 7.3125C46.2963 8.84766 46.5659 10.5938 46.5659 12.5508ZM41.2397 13.7637V12.5156C41.2397 11.1562 41.1166 9.96094 40.8705 8.92969C40.6245 7.89844 40.2612 7.03125 39.7807 6.32812C39.3002 5.625 38.7143 5.09766 38.0229 4.74609C37.3315 4.38281 36.5405 4.20117 35.6498 4.20117C34.7592 4.20117 33.9682 4.38281 33.2768 4.74609C32.5971 5.09766 32.017 5.625 31.5366 6.32812C31.0678 7.03125 30.7104 7.89844 30.4643 8.92969C30.2182 9.96094 30.0952 11.1562 30.0952 12.5156V13.7637C30.0952 15.1113 30.2182 16.3066 30.4643 17.3496C30.7104 18.3809 31.0737 19.2539 31.5541 19.9688C32.0346 20.6719 32.6205 21.2051 33.312 21.5684C34.0034 21.9316 34.7944 22.1133 35.685 22.1133C36.5756 22.1133 37.3666 21.9316 38.058 21.5684C38.7495 21.2051 39.3295 20.6719 39.7983 19.9688C40.267 19.2539 40.6245 18.3809 40.8705 17.3496C41.1166 16.3066 41.2397 15.1113 41.2397 13.7637ZM65.7274 0.351562V4.48242H54.1962V25.9453H48.9403V0.351562H65.7274ZM87.3851 12.5508V13.7637C87.3851 15.709 87.1214 17.4551 86.5941 19.002C86.0667 20.5488 85.3226 21.8672 84.3616 22.957C83.4007 24.0352 82.2523 24.8613 80.9163 25.4355C79.5921 26.0098 78.1214 26.2969 76.5042 26.2969C74.8988 26.2969 73.428 26.0098 72.0921 25.4355C70.7679 24.8613 69.6195 24.0352 68.6468 22.957C67.6741 21.8672 66.9183 20.5488 66.3792 19.002C65.8519 17.4551 65.5882 15.709 65.5882 13.7637V12.5508C65.5882 10.5938 65.8519 8.84766 66.3792 7.3125C66.9066 5.76562 67.6507 4.44727 68.6116 3.35742C69.5843 2.26758 70.7327 1.43555 72.057 0.861328C73.3929 0.287109 74.8636 0 76.4691 0C78.0863 0 79.557 0.287109 80.8812 0.861328C82.2171 1.43555 83.3655 2.26758 84.3265 3.35742C85.2991 4.44727 86.0491 5.76562 86.5765 7.3125C87.1155 8.84766 87.3851 10.5938 87.3851 12.5508ZM82.0589 13.7637V12.5156C82.0589 11.1562 81.9359 9.96094 81.6898 8.92969C81.4437 7.89844 81.0804 7.03125 80.5999 6.32812C80.1195 5.625 79.5335 5.09766 78.8421 4.74609C78.1507 4.38281 77.3597 4.20117 76.4691 4.20117C75.5784 4.20117 74.7874 4.38281 74.096 4.74609C73.4163 5.09766 72.8363 5.625 72.3558 6.32812C71.887 7.03125 71.5296 7.89844 71.2835 8.92969C71.0374 9.96094 70.9144 11.1562 70.9144 12.5156V13.7637C70.9144 15.1113 71.0374 16.3066 71.2835 17.3496C71.5296 18.3809 71.8929 19.2539 72.3734 19.9688C72.8538 20.6719 73.4398 21.2051 74.1312 21.5684C74.8226 21.9316 75.6136 22.1133 76.5042 22.1133C77.3948 22.1133 78.1859 21.9316 78.8773 21.5684C79.5687 21.2051 80.1488 20.6719 80.6175 19.9688C81.0863 19.2539 81.4437 18.3809 81.6898 17.3496C81.9359 16.3066 82.0589 15.1113 82.0589 13.7637ZM99.99 0.351562V25.9453H94.7341V0.351562H99.99ZM107.865 0.351562V4.48242H86.9822V0.351562H107.865ZM114.511 17.6484L124.794 0.351562H130.068V25.9453H124.794V8.64844L114.511 25.9453H109.238V0.351562H114.511V17.6484ZM154.046 0.351562V25.9453H148.772V4.48242H138.489V25.9453H133.215V0.351562H154.046Z" fill="black"/>
</svg>
