<svg width="129" height="22" viewBox="0 0 129 22" fill="none" xmlns="http://www.w3.org/2000/svg">
<path d="M15.5273 0.292969V3.73535H4.92188V0.292969H15.5273ZM18.6621 0.292969V21.6211H14.2676V0.292969H18.6621ZM4.36523 0.292969H8.74512L8.20312 11.001C8.125 12.6025 7.97363 13.9941 7.74902 15.1758C7.53418 16.3574 7.24121 17.3633 6.87012 18.1934C6.49902 19.0137 6.04004 19.6777 5.49316 20.1855C4.95605 20.6836 4.32129 21.0498 3.58887 21.2842C2.85645 21.5088 2.02148 21.6211 1.08398 21.6211H0V18.1934L0.556641 18.1494C1.03516 18.1006 1.45508 17.9736 1.81641 17.7686C2.17773 17.5635 2.48535 17.2559 2.73926 16.8457C3.00293 16.4355 3.21777 15.9131 3.38379 15.2783C3.55957 14.6338 3.69629 13.8477 3.79395 12.9199C3.90137 11.9922 3.97461 10.9082 4.01367 9.66797L4.36523 0.292969ZM38.8049 10.459V11.4697C38.8049 13.0908 38.5852 14.5459 38.1457 15.835C37.7062 17.124 37.0861 18.2227 36.2854 19.1309C35.4846 20.0293 34.5275 20.7178 33.4143 21.1963C32.3107 21.6748 31.0852 21.9141 29.7375 21.9141C28.3996 21.9141 27.174 21.6748 26.0607 21.1963C24.9572 20.7178 24.0002 20.0293 23.1896 19.1309C22.3791 18.2227 21.7492 17.124 21.3 15.835C20.8605 14.5459 20.6408 13.0908 20.6408 11.4697V10.459C20.6408 8.82812 20.8605 7.37305 21.3 6.09375C21.7395 4.80469 22.3596 3.70605 23.1604 2.79785C23.9709 1.88965 24.9279 1.19629 26.0314 0.717773C27.1447 0.239258 28.3703 0 29.7082 0C31.0559 0 32.2814 0.239258 33.385 0.717773C34.4982 1.19629 35.4553 1.88965 36.2561 2.79785C37.0666 3.70605 37.6916 4.80469 38.1311 6.09375C38.5803 7.37305 38.8049 8.82812 38.8049 10.459ZM34.3664 11.4697V10.4297C34.3664 9.29688 34.2639 8.30078 34.0588 7.44141C33.8537 6.58203 33.551 5.85938 33.1506 5.27344C32.7502 4.6875 32.2619 4.24805 31.6857 3.95508C31.1096 3.65234 30.4504 3.50098 29.7082 3.50098C28.966 3.50098 28.3068 3.65234 27.7307 3.95508C27.1643 4.24805 26.6809 4.6875 26.2805 5.27344C25.8898 5.85938 25.592 6.58203 25.3869 7.44141C25.1818 8.30078 25.0793 9.29688 25.0793 10.4297V11.4697C25.0793 12.5928 25.1818 13.5889 25.3869 14.458C25.592 15.3174 25.8947 16.0449 26.2951 16.6406C26.6955 17.2266 27.1838 17.6709 27.76 17.9736C28.3361 18.2764 28.9953 18.4277 29.7375 18.4277C30.4797 18.4277 31.1389 18.2764 31.715 17.9736C32.2912 17.6709 32.7746 17.2266 33.1652 16.6406C33.5559 16.0449 33.8537 15.3174 34.0588 14.458C34.2639 13.5889 34.3664 12.5928 34.3664 11.4697ZM54.7729 0.292969V3.73535H45.1635V21.6211H40.7836V0.292969H54.7729ZM72.8209 10.459V11.4697C72.8209 13.0908 72.6012 14.5459 72.1617 15.835C71.7223 17.124 71.1021 18.2227 70.3014 19.1309C69.5006 20.0293 68.5436 20.7178 67.4303 21.1963C66.3268 21.6748 65.1012 21.9141 63.7535 21.9141C62.4156 21.9141 61.19 21.6748 60.0768 21.1963C58.9732 20.7178 58.0162 20.0293 57.2057 19.1309C56.3951 18.2227 55.7652 17.124 55.316 15.835C54.8766 14.5459 54.6568 13.0908 54.6568 11.4697V10.459C54.6568 8.82812 54.8766 7.37305 55.316 6.09375C55.7555 4.80469 56.3756 3.70605 57.1764 2.79785C57.9869 1.88965 58.9439 1.19629 60.0475 0.717773C61.1607 0.239258 62.3863 0 63.7242 0C65.0719 0 66.2975 0.239258 67.401 0.717773C68.5143 1.19629 69.4713 1.88965 70.2721 2.79785C71.0826 3.70605 71.7076 4.80469 72.1471 6.09375C72.5963 7.37305 72.8209 8.82812 72.8209 10.459ZM68.3824 11.4697V10.4297C68.3824 9.29688 68.2799 8.30078 68.0748 7.44141C67.8697 6.58203 67.567 5.85938 67.1666 5.27344C66.7662 4.6875 66.2779 4.24805 65.7018 3.95508C65.1256 3.65234 64.4664 3.50098 63.7242 3.50098C62.982 3.50098 62.3229 3.65234 61.7467 3.95508C61.1803 4.24805 60.6969 4.6875 60.2965 5.27344C59.9059 5.85938 59.608 6.58203 59.4029 7.44141C59.1979 8.30078 59.0953 9.29688 59.0953 10.4297V11.4697C59.0953 12.5928 59.1979 13.5889 59.4029 14.458C59.608 15.3174 59.9107 16.0449 60.3111 16.6406C60.7115 17.2266 61.1998 17.6709 61.776 17.9736C62.3521 18.2764 63.0113 18.4277 63.7535 18.4277C64.4957 18.4277 65.1549 18.2764 65.7311 17.9736C66.3072 17.6709 66.7906 17.2266 67.1813 16.6406C67.5719 16.0449 67.8697 15.3174 68.0748 14.458C68.2799 13.5889 68.3824 12.5928 68.3824 11.4697ZM83.325 0.292969V21.6211H78.9451V0.292969H83.325ZM89.8875 0.292969V3.73535H72.4852V0.292969H89.8875ZM95.4258 14.707L103.995 0.292969H108.39V21.6211H103.995V7.20703L95.4258 21.6211H91.0312V0.292969H95.4258V14.707ZM128.371 0.292969V21.6211H123.977V3.73535H115.407V21.6211H111.013V0.292969H128.371Z" fill="black"/>
</svg>
