<svg width="103" height="18" viewBox="0 0 103 18" fill="none" xmlns="http://www.w3.org/2000/svg">
<path d="M12.4219 0.234375V2.98828H3.9375V0.234375H12.4219ZM14.9297 0.234375V17.2969H11.4141V0.234375H14.9297ZM3.49219 0.234375H6.99609L6.5625 8.80078C6.5 10.082 6.37891 11.1953 6.19922 12.1406C6.02734 13.0859 5.79297 13.8906 5.49609 14.5547C5.19922 15.2109 4.83203 15.7422 4.39453 16.1484C3.96484 16.5469 3.45703 16.8398 2.87109 17.0273C2.28516 17.207 1.61719 17.2969 0.867188 17.2969H0V14.5547L0.445312 14.5195C0.828125 14.4805 1.16406 14.3789 1.45312 14.2148C1.74219 14.0508 1.98828 13.8047 2.19141 13.4766C2.40234 13.1484 2.57422 12.7305 2.70703 12.2227C2.84766 11.707 2.95703 11.0781 3.03516 10.3359C3.12109 9.59375 3.17969 8.72656 3.21094 7.73438L3.49219 0.234375ZM31.0439 8.36719V9.17578C31.0439 10.4727 30.8681 11.6367 30.5166 12.668C30.165 13.6992 29.6689 14.5781 29.0283 15.3047C28.3877 16.0234 27.622 16.5742 26.7314 16.957C25.8486 17.3398 24.8681 17.5312 23.79 17.5312C22.7197 17.5312 21.7392 17.3398 20.8486 16.957C19.9658 16.5742 19.2002 16.0234 18.5517 15.3047C17.9033 14.5781 17.3994 13.6992 17.04 12.668C16.6884 11.6367 16.5127 10.4727 16.5127 9.17578V8.36719C16.5127 7.0625 16.6884 5.89844 17.04 4.875C17.3916 3.84375 17.8877 2.96484 18.5283 2.23828C19.1767 1.51172 19.9423 0.957031 20.8252 0.574219C21.7158 0.191406 22.6962 0 23.7666 0C24.8447 0 25.8252 0.191406 26.708 0.574219C27.5986 0.957031 28.3642 1.51172 29.0048 2.23828C29.6533 2.96484 30.1533 3.84375 30.5048 4.875C30.8642 5.89844 31.0439 7.0625 31.0439 8.36719ZM27.4931 9.17578V8.34375C27.4931 7.4375 27.4111 6.64062 27.247 5.95312C27.083 5.26562 26.8408 4.6875 26.5205 4.21875C26.2002 3.75 25.8095 3.39844 25.3486 3.16406C24.8877 2.92188 24.3603 2.80078 23.7666 2.80078C23.1728 2.80078 22.6455 2.92188 22.1845 3.16406C21.7314 3.39844 21.3447 3.75 21.0244 4.21875C20.7119 4.6875 20.4736 5.26562 20.3095 5.95312C20.1455 6.64062 20.0634 7.4375 20.0634 8.34375V9.17578C20.0634 10.0742 20.1455 10.8711 20.3095 11.5664C20.4736 12.2539 20.7158 12.8359 21.0361 13.3125C21.3564 13.7812 21.747 14.1367 22.208 14.3789C22.6689 14.6211 23.1962 14.7422 23.79 14.7422C24.3837 14.7422 24.9111 14.6211 25.372 14.3789C25.833 14.1367 26.2197 13.7812 26.5322 13.3125C26.8447 12.8359 27.083 12.2539 27.247 11.5664C27.4111 10.8711 27.4931 10.0742 27.4931 9.17578ZM43.8183 0.234375V2.98828H36.1308V17.2969H32.6269V0.234375H43.8183ZM58.2567 8.36719V9.17578C58.2567 10.4727 58.0809 11.6367 57.7294 12.668C57.3778 13.6992 56.8817 14.5781 56.2411 15.3047C55.6005 16.0234 54.8348 16.5742 53.9442 16.957C53.0614 17.3398 52.0809 17.5312 51.0028 17.5312C49.9325 17.5312 48.952 17.3398 48.0614 16.957C47.1786 16.5742 46.413 16.0234 45.7645 15.3047C45.1161 14.5781 44.6122 13.6992 44.2528 12.668C43.9012 11.6367 43.7255 10.4727 43.7255 9.17578V8.36719C43.7255 7.0625 43.9012 5.89844 44.2528 4.875C44.6044 3.84375 45.1005 2.96484 45.7411 2.23828C46.3895 1.51172 47.1552 0.957031 48.038 0.574219C48.9286 0.191406 49.9091 0 50.9794 0C52.0575 0 53.038 0.191406 53.9208 0.574219C54.8114 0.957031 55.577 1.51172 56.2177 2.23828C56.8661 2.96484 57.3661 3.84375 57.7177 4.875C58.077 5.89844 58.2567 7.0625 58.2567 8.36719ZM54.7059 9.17578V8.34375C54.7059 7.4375 54.6239 6.64062 54.4598 5.95312C54.2958 5.26562 54.0536 4.6875 53.7333 4.21875C53.413 3.75 53.0223 3.39844 52.5614 3.16406C52.1005 2.92188 51.5731 2.80078 50.9794 2.80078C50.3856 2.80078 49.8583 2.92188 49.3973 3.16406C48.9442 3.39844 48.5575 3.75 48.2372 4.21875C47.9247 4.6875 47.6864 5.26562 47.5223 5.95312C47.3583 6.64062 47.2762 7.4375 47.2762 8.34375V9.17578C47.2762 10.0742 47.3583 10.8711 47.5223 11.5664C47.6864 12.2539 47.9286 12.8359 48.2489 13.3125C48.5692 13.7812 48.9598 14.1367 49.4208 14.3789C49.8817 14.6211 50.4091 14.7422 51.0028 14.7422C51.5966 14.7422 52.1239 14.6211 52.5848 14.3789C53.0458 14.1367 53.4325 13.7812 53.745 13.3125C54.0575 12.8359 54.2958 12.2539 54.4598 11.5664C54.6239 10.8711 54.7059 10.0742 54.7059 9.17578ZM66.66 0.234375V17.2969H63.1561V0.234375H66.66ZM71.91 0.234375V2.98828H57.9881V0.234375H71.91ZM76.3406 11.7656L83.1961 0.234375H86.7117V17.2969H83.1961V5.76562L76.3406 17.2969H72.825V0.234375H76.3406V11.7656ZM102.697 0.234375V17.2969H99.1814V2.98828H92.3259V17.2969H88.8103V0.234375H102.697Z" fill="black"/>
</svg>
