<svg width="16" height="12" viewBox="0 0 16 12" fill="none" xmlns="http://www.w3.org/2000/svg">
<path d="M14 0H2C1.46974 0.000541441 0.961363 0.201851 0.586413 0.559758C0.211463 0.917665 0.000567223 1.40293 0 1.90909V10.0909C0.000567223 10.5971 0.211463 11.0823 0.586413 11.4402C0.961363 11.7981 1.46974 11.9995 2 12H14C14.5303 11.9995 15.0386 11.7981 15.4136 11.4402C15.7885 11.0823 15.9994 10.5971 16 10.0909V1.90909C15.9994 1.40293 15.7885 0.917665 15.4136 0.559758C15.0386 0.201851 14.5303 0.000541441 14 0ZM13.4936 3.15784L8.35071 6.97602C8.25043 7.05044 8.12702 7.09084 8 7.09084C7.87298 7.09084 7.74957 7.05044 7.64929 6.97602L2.50643 3.15784C2.446 3.11428 2.39525 3.0597 2.35712 2.99726C2.31899 2.93482 2.29424 2.86576 2.2843 2.79411C2.27437 2.72246 2.27946 2.64964 2.29926 2.57988C2.31907 2.51012 2.3532 2.44481 2.39968 2.38776C2.44615 2.3307 2.50405 2.28302 2.56999 2.24751C2.63594 2.21199 2.70862 2.18934 2.78382 2.18087C2.85901 2.17239 2.93522 2.17827 3.00802 2.19816C3.08081 2.21804 3.14874 2.25154 3.20786 2.2967L8 5.85443L12.7921 2.2967C12.912 2.21033 13.0626 2.17244 13.2115 2.19124C13.3603 2.21005 13.4955 2.28402 13.5876 2.39718C13.6798 2.51033 13.7216 2.65357 13.704 2.79592C13.6864 2.93826 13.6108 3.06828 13.4936 3.15784Z" fill="#F5F5F5"/>
</svg>
