<svg width="15" height="15" viewBox="0 0 15 15" fill="none" xmlns="http://www.w3.org/2000/svg">
<path d="M14.3972 11.4888L11.0505 8.44588C10.8924 8.3019 10.6845 8.22509 10.4708 8.2317C10.257 8.2383 10.0542 8.32782 9.90532 8.48129L7.93517 10.5074C7.46095 10.4168 6.50757 10.1196 5.5262 9.14074C4.54483 8.15856 4.24762 7.20272 4.15953 6.73179L6.18402 4.76084C6.33749 4.61193 6.427 4.40914 6.43361 4.19541C6.44022 3.98167 6.3634 3.77374 6.21942 3.61564L3.17734 0.269786C3.03329 0.111184 2.8331 0.0149809 2.61927 0.00160689C2.40543 -0.0117671 2.19481 0.0587421 2.03213 0.19816L0.245575 1.7303C0.103236 1.87316 0.0182784 2.06328 0.00681852 2.26462C-0.00553094 2.47044 -0.240994 7.34597 3.53959 11.1282C6.83772 14.4254 10.969 14.6667 12.1068 14.6667C12.2731 14.6667 12.3752 14.6617 12.4024 14.6601C12.6035 14.6482 12.7934 14.563 12.9359 14.4205L14.4672 12.6331C14.6072 12.471 14.6782 12.2605 14.6651 12.0467C14.6521 11.8329 14.5559 11.6327 14.3972 11.4888Z" fill="#F5F5F5"/>
</svg>
